<mxfile host="app.diagrams.net" agent="Mozilla/5.0 (Windows NT 10.0; Win64; x64) AppleWebKit/537.36 (KHTML, like Gecko) Chrome/137.0.0.0 Safari/537.36 Edg/137.0.0.0" version="26.2.14">
  <diagram name="Página-1" id="cpOotZwg4liH_BSIsBCt">
    <mxGraphModel dx="1426" dy="789" grid="1" gridSize="10" guides="1" tooltips="1" connect="1" arrows="1" fold="1" page="1" pageScale="1" pageWidth="827" pageHeight="1169" math="0" shadow="0">
      <root>
        <mxCell id="0" />
        <mxCell id="1" parent="0" />
        <mxCell id="3" value="Arduino" style="whiteSpace=wrap;strokeWidth=2;" parent="1" vertex="1">
          <mxGeometry x="288" y="120" width="115" height="54" as="geometry" />
        </mxCell>
        <mxCell id="4" value="DHT11" style="whiteSpace=wrap;strokeWidth=2;" parent="1" vertex="1">
          <mxGeometry x="110" y="247" width="106" height="54" as="geometry" />
        </mxCell>
        <mxCell id="5" value="LEDs e Buzzer" style="whiteSpace=wrap;strokeWidth=2;" parent="1" vertex="1">
          <mxGeometry x="266" y="247" width="159" height="54" as="geometry" />
        </mxCell>
        <mxCell id="6" value="Comunicação Serial" style="whiteSpace=wrap;strokeWidth=2;" parent="1" vertex="1">
          <mxGeometry x="476" y="247" width="200" height="54" as="geometry" />
        </mxCell>
        <mxCell id="8" value="Node-RED" style="whiteSpace=wrap;strokeWidth=2;" parent="1" vertex="1">
          <mxGeometry x="451" y="455" width="130" height="54" as="geometry" />
        </mxCell>
        <mxCell id="9" value="HTTP" style="whiteSpace=wrap;strokeWidth=2;" parent="1" vertex="1">
          <mxGeometry x="423" y="582" width="185" height="54" as="geometry" />
        </mxCell>
        <mxCell id="10" value="dashboard" style="whiteSpace=wrap;strokeWidth=2;" parent="1" vertex="1">
          <mxGeometry x="602" y="861" width="148" height="54" as="geometry" />
        </mxCell>
        <mxCell id="11" value="TagoIO" style="whiteSpace=wrap;strokeWidth=2;" parent="1" vertex="1">
          <mxGeometry x="462" y="719" width="108" height="54" as="geometry" />
        </mxCell>
        <mxCell id="12" value="Monitoramento contínuo e armazenamento de dados" style="whiteSpace=wrap;strokeWidth=2;" parent="1" vertex="1">
          <mxGeometry x="242" y="861" width="200" height="68" as="geometry" />
        </mxCell>
        <mxCell id="14" value="Sensor" style="curved=1;startArrow=none;endArrow=block;entryX=0;entryY=0.75;entryDx=0;entryDy=0;" parent="1" target="3" edge="1">
          <mxGeometry relative="1" as="geometry">
            <Array as="points">
              <mxPoint x="163" y="211" />
            </Array>
            <mxPoint x="162" y="245" as="sourcePoint" />
          </mxGeometry>
        </mxCell>
        <mxCell id="15" value="Controla" style="curved=1;startArrow=none;endArrow=block;exitX=0.5;exitY=1;entryX=0.5;entryY=0;" parent="1" source="3" target="5" edge="1">
          <mxGeometry relative="1" as="geometry">
            <Array as="points" />
          </mxGeometry>
        </mxCell>
        <mxCell id="16" value="Envia dados" style="curved=1;startArrow=none;endArrow=block;exitX=1.01;exitY=0.8;entryX=0.5;entryY=0;" parent="1" source="3" target="6" edge="1">
          <mxGeometry relative="1" as="geometry">
            <Array as="points">
              <mxPoint x="576" y="211" />
            </Array>
          </mxGeometry>
        </mxCell>
        <mxCell id="18" value="Recebe e interpreta" style="curved=1;startArrow=none;endArrow=block;exitX=0.5;exitY=1;entryX=0.5;entryY=0;exitDx=0;exitDy=0;" parent="1" source="6" target="8" edge="1">
          <mxGeometry relative="1" as="geometry">
            <Array as="points" />
            <mxPoint x="575" y="428" as="sourcePoint" />
          </mxGeometry>
        </mxCell>
        <mxCell id="19" value="Transmite dados" style="curved=1;startArrow=none;endArrow=block;exitX=0.5;exitY=1;entryX=0.5;entryY=0;" parent="1" source="8" target="9" edge="1">
          <mxGeometry relative="1" as="geometry">
            <Array as="points" />
          </mxGeometry>
        </mxCell>
        <mxCell id="20" value="Para" style="curved=1;startArrow=none;endArrow=block;exitX=0.5;exitY=1;entryX=0.5;entryY=0;entryDx=0;entryDy=0;" parent="1" source="9" target="11" edge="1">
          <mxGeometry relative="1" as="geometry">
            <Array as="points" />
            <mxPoint x="562" y="679" as="targetPoint" />
          </mxGeometry>
        </mxCell>
        <mxCell id="21" value="Exibe dados em tempo real" style="curved=1;startArrow=none;endArrow=block;entryX=0.5;entryY=0;entryDx=0;entryDy=0;exitX=0.5;exitY=1;exitDx=0;exitDy=0;" parent="1" source="11" target="10" edge="1">
          <mxGeometry relative="1" as="geometry">
            <Array as="points" />
            <mxPoint x="462" y="799" as="sourcePoint" />
          </mxGeometry>
        </mxCell>
        <mxCell id="dBhAwoirr2NzXgcSAyEf-28" value="" style="endArrow=classic;html=1;rounded=0;exitX=0.5;exitY=1;exitDx=0;exitDy=0;entryX=0.5;entryY=0;entryDx=0;entryDy=0;" edge="1" parent="1" source="11" target="12">
          <mxGeometry width="50" height="50" relative="1" as="geometry">
            <mxPoint x="353" y="785" as="sourcePoint" />
            <mxPoint x="403" y="735" as="targetPoint" />
          </mxGeometry>
        </mxCell>
      </root>
    </mxGraphModel>
  </diagram>
</mxfile>
